<?xml version="1.0" encoding="utf-8"?>
<!-- Generator: Adobe Illustrator 28.1.0, SVG Export Plug-In . SVG Version: 6.00 Build 0)  -->
<svg version="1.1" id="Шар_1" xmlns="http://www.w3.org/2000/svg" xmlns:xlink="http://www.w3.org/1999/xlink" x="0px" y="0px"
	 viewBox="0 0 1024 1024" style="enable-background:new 0 0 1024 1024;" xml:space="preserve">
<style type="text/css">
	.st0{fill:#D57EFF;stroke:#000000;stroke-miterlimit:10;}
	.st1{fill:#FFFFFF;}
</style>
<g transform="translate(0.000000,1024.000000) scale(0.100000,-0.100000)">
	<path class="st0" d="M2779.3,8465.4c-62-22-133-96-159-164c-31-83-46-207-39-328c20-367,114-571,497-1086
		c424-570,856-1148,1124-1504c113-150,206-277,206-283c0-9-112-157-451-592c-85-109-181-233-213-275s-77-98-100-125l-41-48l-150-3
		c-164-2-263-21-402-76c-295-117-542-394-622-701c-104-400,7-797,302-1074c196-183,431-276,707-277c303-1,552,100,755,307
		c172,175,265,357,300,586c32,207,4,432-77,622l-20,46l304,377c166,208,317,395,333,416c17,21,32,38,35,38c5,0,107-123,427-513
		c265-324,258-314,244-350c-141-347-133-680,25-964c159-285,374-457,671-534c103-26,136-30,253-31c219,0,401,50,578,159
		c96,59,254,215,316,311c210,326,228,786,42,1116c-83,148-201,276-339,367c-104,69-195,109-333,146c-85,23-121,27-254,29l-155,1
		l-53,65c-64,77-505,637-694,881l-78,100l43,53c86,108,136,173,245,318c62,81,125,165,140,185c16,20,57,75,92,122s113,150,172,230
		c60,80,138,183,173,230c59,78,154,206,492,663c340,461,440,670,474,989c19,185-6,374-61,462c-34,54-97,102-154,117
		c-93,25-221-12-317-92c-49-41-152-156-331-369c-53-63-107-127-120-141c-13-15-66-80-118-144c-52-65-122-150-156-189
		c-93-109-550-674-987-1220c-250-313-235-296-248-274c-9,16-62,82-399,498c-96,118-267,330-380,470c-480,594-1096,1322-1169,1379
		C3006.3,8473.4,2877.3,8502.4,2779.3,8465.4z M3101.3,7857.4c67-77,162-187,212-245c147-170,484-580,890-1085
		c228-283,290-360,482-599c80-98,147-184,149-191c3-7-46-76-108-153c-105-131-114-140-129-124c-22,23-686,907-872,1162
		c-83,113-196,266-252,340c-122,163-276,379-338,475c-111,174-174,346-196,542l-7,63l24-23
		C2969.3,8007.4,3035.3,7934.4,3101.3,7857.4z M7201.3,7990.4c-16-209-91-412-226-612c-100-149-1422-1919-1437-1924
		c-13-5-244,289-233,297c5,3,56,66,114,139c57,74,124,159,149,190c69,89,384,481,495,617c55,68,172,213,260,322
		c87,109,196,241,240,293c45,52,133,158,195,235c167,205,424,495,440,495C7202.3,8042.4,7203.3,8018.4,7201.3,7990.4z
		 M5141.3,5337.4c164-68,167-292,5-360c-127-52-267,43-268,183C4878.3,5291.4,5020.3,5388.4,5141.3,5337.4z M4750.3,4698.4
		c38-49,67-92,66-97c-2-4-86-113-189-241c-102-128-247-313-323-411l-138-177l-38,33c-20,19-65,53-98,76c-34,23-62,44-62,48
		c0,3,35,49,78,102s115,145,161,204s102,132,125,161c99,128,292,380,305,397C4655.3,4818.4,4662.3,4812.4,4750.3,4698.4z
		 M5743.3,4482.4c130-168,277-358,328-423c51-65,93-123,94-130c2-7-23-30-54-52s-73-55-94-72l-36-33l-179,227
		c-98,124-224,283-278,352c-55,69-123,155-152,192l-52,65l82,101c61,76,84,98,93,89C5501.3,4792.4,5613.3,4650.4,5743.3,4482.4z
		 M3628.3,3665.4c396-92,612-531,460-935c-28-75-85-158-163-238c-124-126-252-180-442-187c-240-9-412,61-552,228
		c-112,133-165,281-164,459C2767.3,3457.4,3170.3,3772.4,3628.3,3665.4z M6868.3,3666.4c84-21,190-72,262-129
		c255-200,331-594,172-882c-128-230-339-355-604-355c-264,1-485,133-604,362c-161,309-68,715,206,902c106,72,191,103,333,122
		C6681.3,3692.4,6797.3,3682.4,6868.3,3666.4z"/>
	<path class="st1" d="M31,191c-11-7-11-9,0-14c11-4,11-6,1-6c-10-1-10-4,2-16c21-22,26-19,26,15C60,201,54,206,31,191z"/>
	<path class="st1" d="M8,123c7-3,16-2,19,1c4,3-2,6-13,5C3,129,0,126,8,123z"/>
	<path class="st1" d="M51,123c-1-7-12-13-26-13c-24,0-25-3-25-55V0h35h35l-1,48C69,89,53,155,51,123z"/>
</g>
</svg>
